<svg xmlns="http://www.w3.org/2000/svg" width="18" height="18" viewBox="0 0 18 18"><defs><style>.a{fill:rgba(0,0,0,0);}.b{fill:#f84b00;}</style></defs><rect class="a" width="18" height="18"/><g transform="translate(0 0)"><path class="b" d="M9.818,18H8.182V16.282a7,7,0,0,1-2.368-.665,7.212,7.212,0,0,1-1.969-1.4,7.408,7.408,0,0,1-1.416-1.984,7.485,7.485,0,0,1-.711-2.414H0V8.182H1.718A7.16,7.16,0,0,1,8.182,1.718V0H9.818V1.718a6.993,6.993,0,0,1,2.368.665,7.209,7.209,0,0,1,1.969,1.4,7.46,7.46,0,0,1,2.127,4.4H18V9.818H16.282a7,7,0,0,1-.665,2.368,7.212,7.212,0,0,1-1.4,1.969,7.408,7.408,0,0,1-1.984,1.416,7.485,7.485,0,0,1-2.414.711V18ZM9,3.273A5.666,5.666,0,0,0,3.273,9,5.666,5.666,0,0,0,9,14.727,5.666,5.666,0,0,0,14.727,9,5.666,5.666,0,0,0,9,3.273Zm0,9A3.273,3.273,0,1,1,12.273,9,3.276,3.276,0,0,1,9,12.273Z"/></g></svg>